<svg width="28" height="28" viewBox="0 0 28 28" fill="none" xmlns="http://www.w3.org/2000/svg">
<mask id="mask0_3564_10" style="mask-type:alpha" maskUnits="userSpaceOnUse" x="0" y="0" width="28" height="28">
<rect width="28" height="28" fill="#C4C4C4"/>
</mask>
<g mask="url(#mask0_3564_10)">
<path d="M24.2084 9.43374H19.6234L20.0574 4.44974C20.0994 3.96907 19.7424 3.54558 19.2617 3.50241C18.7752 3.46741 18.3564 3.81741 18.3144 4.29924L17.8675 9.43257H10.4942L10.9259 4.4509C10.969 3.96906 10.6109 3.54558 10.1325 3.50241C9.64254 3.46741 9.22604 3.81741 9.18404 4.29924L8.73837 9.43257H4.1207C3.6377 9.43257 3.2457 9.82574 3.2457 10.3076C3.2457 10.7894 3.6377 11.1826 4.1207 11.1826H8.58671L7.94504 18.5641H3.20837C2.72537 18.5641 2.33337 18.9561 2.33337 19.4391C2.33337 19.9221 2.72537 20.3141 3.20837 20.3141H7.79337L7.35937 25.2981C7.31737 25.7787 7.67437 26.2022 8.15504 26.2454L8.23204 26.2489C8.68121 26.2489 9.06271 25.9047 9.10238 25.4486L9.5492 20.3152H16.9225L16.4909 25.2969C16.4489 25.7787 16.8059 26.2022 17.2865 26.2454L17.3635 26.2489C17.8127 26.2489 18.1942 25.9047 18.2339 25.4486L18.6795 20.3152H23.296C23.7779 20.3152 24.171 19.9221 24.171 19.4402C24.171 18.9584 23.7779 18.5652 23.296 18.5652H18.83L19.4717 11.1837H24.2084C24.6914 11.1837 25.0834 10.7917 25.0834 10.3087C25.0834 9.82574 24.6914 9.43374 24.2084 9.43374ZM17.0742 18.5641H9.70088L10.3425 11.1837H17.7159L17.0742 18.5641Z" fill="black"/>
</g>
</svg>
