<svg width="28" height="28" viewBox="0 0 28 28" fill="none" xmlns="http://www.w3.org/2000/svg">
<mask id="mask0_3564_116" style="mask-type:alpha" maskUnits="userSpaceOnUse" x="0" y="0" width="28" height="28">
<rect width="28" height="28" fill="#C4C4C4"/>
</mask>
<g mask="url(#mask0_3564_116)">
<path d="M22.4584 3.5H5.54171C3.77187 3.5 2.33337 4.93967 2.33337 6.71067V21.2882C2.33337 23.0592 3.77187 24.5 5.54171 24.5H22.4584C24.2282 24.5 25.6667 23.0592 25.6667 21.2882V6.71067C25.6667 4.93967 24.2282 3.5 22.4584 3.5ZM5.54171 5.25H22.4584C23.2634 5.25 23.9167 5.90333 23.9167 6.70833V7.54132L14.525 13.8028C14.2065 14.0128 13.7947 14.0152 13.475 13.8005L4.08337 7.54132V6.70833C4.08337 5.90333 4.73671 5.25 5.54171 5.25ZM22.4584 22.7477H5.54171C4.73671 22.7477 4.08337 22.0943 4.08337 21.2893V9.59233L12.53 15.2273C12.9769 15.526 13.489 15.6753 14 15.6753C14.5134 15.6753 15.0232 15.526 15.47 15.2285L23.9167 9.59349V21.2858C23.9167 22.0908 23.2634 22.7442 22.4584 22.7442V22.7477Z" fill="black"/>
</g>
</svg>
