<?xml version="1.0" standalone="no"?>
<!DOCTYPE svg PUBLIC "-//W3C//DTD SVG 20010904//EN"
 "http://www.w3.org/TR/2001/REC-SVG-20010904/DTD/svg10.dtd">
<svg version="1.0" xmlns="http://www.w3.org/2000/svg"
 width="1050.000000pt" height="1280.000000pt" viewBox="0 0 1050.000000 1280.000000"
 preserveAspectRatio="xMidYMid meet">
<metadata>
Created by potrace 1.15, written by Peter Selinger 2001-2017
</metadata>
<g transform="translate(0.000000,1280.000000) scale(0.100000,-0.100000)"
fill="#000000" stroke="none">
<path d="M3025 12786 c-62 -20 -96 -41 -140 -85 -21 -23 -37 -41 -34 -41 3 0
68 -11 145 -25 233 -43 338 -76 474 -148 296 -158 534 -345 732 -574 42 -49
125 -144 184 -213 237 -275 314 -411 314 -557 0 -49 2 -53 24 -53 61 0 100 70
98 180 -2 98 -11 138 -47 216 -42 88 -87 149 -284 389 -321 389 -394 484 -460
592 -18 29 -40 54 -49 56 -9 3 -39 11 -67 18 -27 7 -147 52 -265 101 -118 49
-249 100 -291 114 -136 44 -256 55 -334 30z"/>
<path d="M7820 11715 c-52 -14 -139 -33 -192 -44 -54 -11 -137 -36 -186 -55
-49 -19 -150 -46 -223 -61 -74 -15 -146 -33 -160 -41 -15 -7 -43 -36 -63 -64
-26 -37 -102 -100 -288 -238 -379 -283 -445 -337 -470 -385 -33 -66 -76 -125
-158 -217 -96 -107 -143 -175 -169 -246 -29 -75 -28 -94 5 -94 14 0 38 -7 54
-16 17 -11 37 -14 53 -10 25 6 89 73 170 176 57 73 160 131 129 73 -10 -19
-15 -52 -13 -90 1 -20 6 -23 44 -22 23 0 73 8 112 18 l69 18 13 49 c7 27 12
74 11 104 l-3 55 -40 8 c-120 25 -122 38 -18 108 108 73 215 154 373 283 89
73 164 126 221 154 47 24 139 83 203 131 100 76 124 90 168 95 69 9 168 48
259 102 l77 45 132 8 c129 7 134 8 157 36 55 63 -20 146 -129 144 -24 0 -86
-11 -138 -24z"/>
<path d="M2060 11605 c-14 -8 -39 -14 -56 -15 -26 0 -43 -12 -90 -62 -257
-278 -418 -579 -484 -903 -12 -58 -29 -112 -41 -128 -57 -78 -79 -249 -39
-314 10 -17 28 -37 40 -43 23 -12 16 -26 86 155 109 281 288 646 518 1059 63
112 122 218 130 235 l17 31 -28 0 c-16 -1 -39 -7 -53 -15z"/>
<path d="M3415 11124 c-87 -21 -208 -67 -369 -141 l-141 -64 -193 -192 c-268
-265 -352 -360 -568 -639 -199 -257 -281 -354 -387 -457 -42 -41 -69 -76 -73
-95 -12 -57 -64 -148 -159 -280 -103 -145 -132 -201 -141 -282 -6 -51 -6 -54
20 -64 86 -32 113 -12 437 332 157 167 371 396 475 509 170 186 195 209 244
228 79 31 174 89 349 214 250 178 359 227 552 249 92 10 121 10 199 -4 168
-30 256 -88 420 -275 120 -136 177 -219 265 -388 37 -71 85 -153 105 -180 53
-72 64 -97 100 -225 17 -63 40 -130 51 -147 27 -43 66 -73 95 -73 25 0 65 45
84 95 19 50 12 180 -16 300 -18 75 -28 148 -31 230 -3 99 -9 135 -34 210 -43
129 -144 330 -239 475 -245 373 -499 605 -726 664 -77 20 -237 20 -319 0z"/>
<path d="M8162 10770 c-229 -32 -412 -127 -692 -362 -150 -126 -431 -399 -478
-466 -18 -26 -34 -63 -38 -90 -4 -26 -12 -58 -20 -73 -15 -30 -82 -93 -146
-137 -92 -63 -130 -122 -259 -403 -42 -92 -95 -195 -118 -229 -23 -34 -40 -67
-36 -73 3 -7 12 -23 20 -37 17 -29 13 -47 -26 -108 -31 -48 -31 -71 0 -105 15
-18 16 -18 21 5 5 20 13 23 60 26 l55 3 41 72 c112 194 273 368 629 681 132
115 290 261 352 323 95 95 129 121 222 173 129 73 208 100 312 107 120 9 156
-1 275 -73 468 -283 771 -672 869 -1114 23 -101 31 -376 15 -492 -6 -49 -10
-91 -8 -93 1 -2 27 13 57 33 62 41 121 125 146 205 16 55 34 166 60 386 9 74
27 172 41 218 13 46 24 87 24 92 0 4 -17 13 -39 19 l-38 12 -7 87 c-25 327
-128 591 -337 869 -43 56 -100 136 -127 177 -80 117 -207 219 -367 293 -141
65 -320 94 -463 74z"/>
<path d="M10180 9465 c54 -126 77 -316 60 -502 -13 -153 -19 -193 -70 -473
-53 -291 -62 -362 -58 -450 l3 -75 42 42 c23 24 58 71 77 105 36 66 190 454
207 523 5 22 14 132 19 245 8 180 19 278 35 330 3 10 -10 23 -35 38 -29 16
-60 52 -110 127 -78 117 -99 135 -152 135 l-37 0 19 -45z"/>
<path d="M1642 8259 l3 -72 45 -13 c29 -9 75 -37 125 -80 94 -78 123 -94 167
-94 43 0 98 34 98 60 0 35 -46 114 -89 153 -70 63 -152 94 -299 111 l-53 7 3
-72z"/>
<path d="M3195 8279 c-273 -15 -496 -90 -603 -202 -26 -29 -68 -86 -91 -127
-24 -41 -56 -94 -72 -117 -29 -41 -29 -44 -14 -72 21 -41 19 -57 -9 -94 -13
-18 -27 -42 -30 -53 -10 -33 40 -49 154 -49 89 0 105 4 262 58 254 87 254 87
566 87 l272 0 53 -29 c52 -30 138 -64 300 -120 48 -17 97 -36 109 -42 18 -9
26 -5 64 32 86 84 108 183 63 276 -34 70 -131 169 -187 189 -124 44 -168 71
-225 136 -65 73 -95 86 -252 112 -116 19 -211 23 -360 15z m227 -284 c62 -8
127 -19 143 -23 l30 -9 -35 -6 c-19 -4 -132 -13 -250 -22 -238 -17 -283 -21
-385 -36 -78 -12 -209 -45 -236 -59 -38 -21 -32 -8 13 23 166 118 442 169 720
132z"/>
<path d="M1093 8073 c-20 -4 -23 -10 -23 -57 0 -51 2 -55 38 -78 98 -65 216
-96 484 -127 98 -12 219 -32 270 -46 51 -14 117 -25 146 -25 48 0 58 4 87 33
43 43 52 77 29 112 -30 45 -68 58 -209 66 -99 6 -185 20 -357 59 -125 28 -271
55 -325 60 -102 10 -104 10 -140 3z"/>
<path d="M7290 7919 c-88 -9 -109 -14 -130 -34 -35 -33 -111 -69 -200 -95
-184 -54 -256 -108 -278 -207 -9 -38 -7 -44 17 -67 50 -48 80 -52 301 -40 385
20 1013 -127 1631 -381 13 -5 19 4 29 44 10 44 9 55 -8 93 -10 24 -28 51 -40
61 l-21 19 35 30 c39 35 58 67 67 116 6 31 2 38 -76 116 -95 96 -140 128 -263
189 -138 69 -286 113 -474 142 -129 20 -448 27 -590 14z"/>
<path d="M6173 7658 c-90 -185 -203 -348 -379 -546 l-47 -53 13 -87 c7 -48 14
-118 15 -157 1 -61 7 -81 47 -160 133 -264 205 -548 328 -1290 62 -372 71
-441 66 -508 -6 -73 -5 -79 18 -102 19 -19 36 -25 67 -25 61 0 101 44 128 140
29 102 57 160 77 160 9 0 49 -15 88 -34 199 -96 355 -305 451 -601 32 -101 75
-263 75 -286 0 -32 -100 -91 -215 -129 -124 -40 -225 -96 -225 -125 0 -19 70
-63 121 -75 75 -19 141 1 336 101 l175 88 76 -65 c291 -249 657 -384 1040
-384 221 0 340 25 641 134 84 31 157 56 160 56 19 0 60 -586 61 -857 l0 -181
35 11 c49 15 101 75 120 139 11 35 19 123 26 263 9 210 24 302 54 349 14 22
15 28 2 53 -16 31 -27 73 -61 244 -30 143 -57 209 -107 254 -69 62 -135 47
-265 -64 -81 -69 -134 -92 -276 -122 -349 -71 -840 5 -1061 164 -104 74 -189
186 -400 524 -80 128 -177 274 -216 326 -130 173 -286 308 -428 372 -54 24
-70 27 -110 20 -27 -4 -64 -8 -83 -9 l-35 -1 -6 95 c-4 52 -10 129 -14 171 -5
49 -4 83 3 95 10 18 11 17 22 -11 6 -16 16 -55 22 -85 14 -77 32 -108 70 -118
92 -24 121 16 122 168 0 52 -5 118 -13 147 l-13 51 -92 18 c-103 19 -143 14
-155 -19 -9 -24 -8 -32 -32 158 -42 335 -156 725 -312 1066 l-35 76 61 84
c193 269 234 356 244 524 l5 90 -45 28 c-77 47 -87 42 -144 -75z"/>
<path d="M1953 7650 c-23 -5 -76 -22 -118 -39 -42 -17 -88 -31 -103 -31 -39 0
-119 -89 -167 -185 -35 -71 -40 -88 -40 -152 0 -62 3 -75 25 -98 31 -33 80
-60 90 -48 4 4 27 35 52 68 137 181 274 292 379 307 78 10 99 22 99 56 0 15 7
36 15 46 17 23 8 39 -35 61 -35 18 -143 26 -197 15z"/>
<path d="M3140 7483 c-310 -30 -586 -142 -773 -313 l-55 -50 -79 31 c-102 41
-168 59 -221 59 -50 0 -97 -21 -113 -51 -10 -19 -4 -28 58 -88 81 -79 174
-128 366 -192 l129 -43 51 60 c94 109 181 196 236 236 168 125 375 155 706
102 196 -31 354 -41 413 -25 24 7 60 27 80 46 l37 33 -31 39 c-38 47 -127 93
-225 116 -138 33 -443 54 -579 40z"/>
<path d="M9855 7447 c-16 -7 -58 -27 -92 -44 l-62 -33 -48 29 c-39 24 -66 31
-151 40 -56 6 -138 11 -182 11 l-79 0 -45 -47 c-79 -83 -59 -143 61 -179 68
-21 139 -17 323 15 91 16 199 32 240 36 267 24 391 67 418 143 l10 29 -121 7
c-165 8 -237 7 -272 -7z"/>
<path d="M7265 7139 c-93 -4 -215 -12 -269 -17 -106 -10 -126 -21 -126 -68 0
-42 131 -61 515 -74 165 -6 341 -17 392 -25 214 -34 341 -117 395 -256 l22
-57 211 -5 c235 -6 313 -18 438 -72 71 -30 77 -31 77 -13 0 12 10 23 29 29 65
23 36 71 -72 123 -87 42 -193 69 -346 91 -63 8 -115 16 -116 18 -1 1 -12 19
-24 39 -75 126 -255 220 -502 263 -74 13 -395 37 -439 33 -8 0 -91 -5 -185 -9z"/>
<path d="M9576 7110 c-16 -5 -40 -19 -54 -32 -23 -22 -61 -91 -62 -113 0 -6
39 -10 98 -10 l97 0 132 -70 c114 -60 140 -69 185 -70 50 0 53 1 56 27 12 104
-194 263 -354 273 -38 3 -82 0 -98 -5z"/>
<path d="M8940 6930 c-6 -11 -14 -42 -17 -69 l-6 -49 109 -88 c141 -114 233
-208 273 -277 22 -38 39 -92 55 -170 28 -132 43 -166 91 -203 34 -26 36 -26
55 -9 38 34 53 96 48 202 -4 90 -8 108 -58 231 -29 74 -67 154 -83 178 -54 82
-197 181 -340 237 -97 38 -114 41 -127 17z"/>
<path d="M4290 6208 c-51 -19 -51 -53 0 -167 56 -124 58 -160 21 -303 -17 -65
-47 -194 -66 -287 -86 -418 -175 -559 -417 -659 -163 -67 -409 -103 -838 -122
-135 -6 -346 -20 -470 -30 -124 -11 -292 -24 -375 -30 -288 -20 -486 -52 -614
-99 -75 -28 -549 -282 -640 -343 -304 -205 -419 -425 -438 -839 l-6 -136 68
-109 c106 -172 115 -184 158 -231 67 -73 138 -100 231 -89 93 12 92 15 -26
128 -140 136 -152 164 -152 363 0 77 6 167 13 200 38 175 134 338 285 482 150
144 317 243 525 312 87 29 103 31 210 29 130 -3 154 2 436 91 352 112 453 123
1137 122 627 -1 889 12 1103 57 l40 8 3 55 c3 48 -1 60 -28 94 -97 128 -100
141 -51 310 47 161 127 319 202 400 34 36 69 65 79 65 25 0 130 -79 230 -173
137 -129 211 -176 320 -201 l60 -14 0 31 c0 18 -7 56 -15 86 -42 160 -131 260
-385 431 -182 123 -273 201 -283 242 -17 74 -58 204 -77 242 -12 26 -36 54
-54 66 -42 25 -138 35 -186 18z"/>
<path d="M4584 4541 c-46 -21 -57 -40 -48 -79 14 -57 46 -102 111 -159 141
-122 167 -152 205 -248 45 -114 69 -220 108 -474 17 -112 35 -226 41 -255 49
-236 141 -396 283 -488 167 -108 630 -184 804 -133 71 21 137 86 225 220 l72
110 44 0 45 0 21 55 c12 30 40 85 63 122 94 152 133 257 134 357 0 36 -5 79
-11 94 -11 27 -14 28 -54 22 -60 -10 -93 -30 -125 -74 -28 -38 -39 -73 -82
-251 -16 -66 -28 -92 -53 -118 -93 -97 -264 -130 -525 -101 -86 9 -102 14
-144 45 -67 50 -160 154 -231 258 -33 49 -126 216 -207 371 -200 383 -280 500
-421 621 -57 48 -183 124 -205 124 -5 0 -27 -9 -50 -19z"/>
<path d="M176 3837 c-112 -190 -164 -406 -173 -717 l-6 -185 52 -103 c152
-304 283 -466 432 -537 80 -38 183 -57 263 -48 44 5 46 7 46 37 -1 43 -25 70
-98 109 -52 28 -74 49 -134 127 -192 253 -274 436 -312 693 -22 144 -20 185 8
248 14 30 43 128 66 219 22 91 43 173 46 183 5 15 -3 17 -80 17 l-85 0 -25
-43z"/>
<path d="M1480 3449 c-121 -12 -279 -51 -349 -86 -62 -32 -111 -91 -111 -134
0 -24 6 -30 55 -48 89 -34 167 -41 355 -34 193 7 305 -6 470 -54 173 -50 217
-79 395 -257 146 -147 165 -163 218 -181 78 -25 146 -98 356 -379 162 -217
210 -271 478 -529 135 -130 209 -214 393 -447 199 -251 374 -389 653 -512 360
-158 831 -237 1251 -208 274 18 332 33 581 145 88 39 244 100 348 135 203 68
239 88 415 225 145 114 341 295 437 404 110 125 187 226 360 471 305 431 459
596 645 690 70 35 108 45 245 65 192 28 268 61 304 133 40 80 42 77 -61 93
-114 17 -357 17 -458 0 -142 -24 -276 -62 -585 -166 -1107 -372 -1407 -448
-1855 -470 -323 -16 -761 47 -1150 165 -170 52 -184 56 -355 94 -246 56 -385
110 -851 331 -460 219 -571 263 -940 375 -274 83 -460 128 -684 165 -116 19
-430 27 -560 14z m1150 -357 c69 -22 140 -43 158 -47 l32 -7 0 -168 0 -169
-162 112 c-161 110 -338 268 -338 301 0 41 148 30 310 -22z m546 -192 c21 -7
64 -25 94 -40 74 -37 176 -70 217 -70 l33 0 0 -135 c0 -112 -13 -235 -25 -235
-1 0 -16 7 -31 15 -19 10 -58 15 -111 15 l-83 0 0 -27 c0 -42 31 -85 99 -137
62 -48 77 -67 91 -116 6 -21 3 -31 -11 -44 -10 -9 -19 -28 -19 -43 0 -53 -14
-60 -61 -29 -69 46 -125 103 -255 257 -68 81 -143 163 -168 184 l-45 36 40 86
c49 106 69 174 73 249 2 33 4 59 5 60 6 3 127 -16 157 -26z m824 -340 c197
-68 191 -61 171 -208 -8 -53 -16 -127 -18 -163 -5 -63 -4 -67 22 -87 34 -27
96 -29 117 -4 22 25 27 44 39 150 5 54 15 114 20 135 10 37 11 38 47 31 20 -3
62 -15 92 -26 30 -11 91 -33 135 -49 44 -16 99 -29 123 -29 l42 0 0 -92 c0
-51 -5 -154 -11 -228 -8 -91 -9 -148 -3 -175 10 -39 11 -40 55 -39 55 0 94 25
121 78 19 36 22 62 26 204 4 132 7 162 19 162 7 0 78 -7 156 -15 163 -18 284
-45 333 -76 l34 -21 0 -199 0 -199 43 0 c103 1 128 44 127 225 -1 72 -1 147
-1 168 l1 37 241 0 241 0 -4 -57 c-3 -32 -10 -89 -17 -128 -18 -96 -7 -125 47
-125 85 0 112 56 112 227 l0 110 108 12 c179 21 421 68 495 97 11 4 17 -13 25
-68 17 -117 24 -222 16 -263 -6 -33 -13 -40 -59 -61 -71 -33 -174 -58 -345
-84 -172 -26 -311 -60 -370 -90 l-42 -21 22 -24 c54 -58 163 -58 410 -2 178
41 321 63 346 53 15 -6 16 -19 11 -124 -3 -64 -11 -145 -18 -179 l-11 -62 -75
-41 c-41 -22 -132 -80 -201 -128 -170 -118 -216 -146 -292 -180 -113 -51 -111
-51 -104 5 3 26 19 96 34 155 16 58 34 137 40 174 10 64 10 69 -14 105 -43 64
-101 65 -131 3 -13 -27 -19 -76 -24 -188 -6 -135 -9 -156 -31 -194 -23 -40
-23 -45 -9 -70 9 -17 26 -29 44 -32 l29 -5 -24 -16 c-184 -120 -507 -171 -895
-140 -140 11 -356 39 -363 46 -2 2 8 33 22 69 36 90 49 162 50 286 1 124 -25
223 -74 282 -30 37 -31 37 -65 22 -19 -8 -46 -14 -59 -14 l-25 0 17 -37 c14
-32 17 -76 18 -268 0 -146 5 -240 12 -257 11 -26 10 -28 -24 -34 -20 -4 -66
-4 -104 -2 -101 8 -180 48 -383 193 l-97 69 0 51 c0 27 11 95 24 150 36 148
40 202 22 254 -8 25 -13 48 -10 53 12 19 82 6 165 -33 72 -32 97 -40 136 -37
43 3 48 6 51 29 4 30 -35 82 -79 104 -15 8 -70 30 -121 49 -52 18 -128 56
-170 84 -89 58 -132 69 -182 48 -41 -17 -47 -46 -21 -96 17 -33 43 -49 123
-75 l54 -17 -31 -19 c-62 -38 -84 -106 -97 -301 -3 -54 -9 -98 -13 -98 -21 0
-127 112 -228 242 -64 82 -145 176 -180 207 -62 55 -63 59 -53 87 7 16 14 79
17 141 l6 112 71 11 c88 15 116 31 116 69 0 21 -13 42 -52 80 -50 48 -53 53
-52 99 1 26 14 85 28 131 15 46 26 106 26 136 l0 55 58 -27 c31 -14 131 -52
222 -83z m3904 30 c4 -5 -7 -37 -25 -72 -23 -45 -65 -95 -146 -175 -62 -62
-118 -113 -124 -113 -15 0 -6 231 10 273 18 46 179 112 246 100 17 -3 34 -9
39 -13z m-450 -230 c12 -34 21 -93 24 -157 7 -153 -31 -259 -137 -385 -47 -56
-158 -156 -231 -210 l-43 -32 7 49 c22 153 23 485 1 658 -8 56 -8 57 18 57 14
0 63 14 109 31 111 42 135 48 188 46 l45 -2 19 -55z"/>
<path d="M4962 1652 c10 -69 66 -124 167 -164 47 -19 76 -22 186 -23 151 0
200 14 256 71 33 35 34 36 14 50 -39 29 -124 44 -325 59 -198 14 -263 24 -290
40 -10 6 -12 -1 -8 -33z"/>
<path d="M5595 1390 c-11 -5 -33 -9 -48 -9 -27 -1 -28 -3 -20 -33 4 -18 7
-114 5 -213 -4 -194 3 -235 38 -235 35 0 79 28 97 63 15 27 18 62 20 222 1
122 -2 194 -9 202 -12 15 -53 16 -83 3z"/>
<path d="M9795 3028 c-3 -7 -32 -110 -65 -228 -127 -446 -224 -713 -358 -977
l-56 -112 -102 -47 c-110 -50 -160 -91 -170 -141 -5 -25 -2 -34 17 -47 42 -29
82 -20 166 37 43 30 119 79 168 110 142 89 212 163 275 288 37 72 119 317 160
474 17 66 49 174 70 241 77 238 73 342 -13 394 -36 22 -85 26 -92 8z"/>
<path d="M7105 804 c-120 -104 -403 -265 -595 -340 -303 -117 -624 -177 -945
-178 -228 -1 -330 15 -720 109 -82 20 -199 47 -259 60 -89 19 -114 29 -140 53
-89 85 -154 104 -181 52 -19 -37 -12 -70 24 -104 25 -24 221 -109 486 -211
356 -137 749 -238 930 -239 101 -1 174 19 352 98 77 34 116 45 178 51 129 12
263 73 592 268 183 110 274 187 309 262 23 48 33 138 17 148 -5 3 -26 -11 -48
-29z"/>
</g>
</svg>
