<svg width="28" height="28" viewBox="0 0 28 28" fill="none" xmlns="http://www.w3.org/2000/svg">
<mask id="mask0_3564_63" style="mask-type:alpha" maskUnits="userSpaceOnUse" x="0" y="0" width="28" height="28">
<rect width="28" height="28" fill="#C4C4C4"/>
</mask>
<g mask="url(#mask0_3564_63)">
<path d="M25.3141 19.2943C25.2908 19.2757 22.8174 17.381 22.8606 12.2593C22.8839 9.30533 21.9133 6.68032 20.1224 4.86848C18.5183 3.24332 16.3459 2.34498 14.0068 2.33331H13.9916C11.6536 2.34498 9.48127 3.24333 7.87593 4.86966C6.08627 6.68149 5.11328 9.30533 5.13894 12.2593C5.18211 17.311 2.78227 19.2208 2.6866 19.2943C2.38327 19.5195 2.2596 19.9127 2.37744 20.272C2.49644 20.6313 2.83243 20.8728 3.20809 20.8728H8.94811C9.06711 23.5678 11.2779 25.7262 13.9998 25.7262C16.7216 25.7262 18.9301 23.5678 19.0479 20.8728H24.7903C25.1659 20.8728 25.5019 20.6325 25.6186 20.2732C25.7388 19.915 25.6151 19.5206 25.3118 19.2955L25.3141 19.2943ZM14.0009 23.9727C12.2451 23.9727 10.8159 22.5995 10.7016 20.8717H17.3003C17.1836 22.5983 15.7568 23.975 14.0009 23.975V23.9727ZM5.11094 19.1217C5.97427 17.801 6.91694 15.589 6.88894 12.243C6.86794 9.72298 7.64027 7.59732 9.12077 6.09815C10.3959 4.80665 12.1308 4.09148 14.0009 4.08331C15.8711 4.09265 17.6024 4.80666 18.8776 6.09933C20.3593 7.59849 21.1328 9.72299 21.1118 12.2442C21.0838 15.5902 22.0276 17.8033 22.8909 19.1228H5.11094V19.1217Z" fill="black"/>
</g>
</svg>
